-
http:// www. Speed. Cd       
http:// www. Speed. Cd       the fast  and The Hottest Private Tracker on the net

Please Seed back to make the speed Faster!!!

and don't forget to visit      ...... www. Speed. Cd..........
-  Knockout 2011 DVDRip DXVA AC3-Freebee


General
ID : 1 (0x1)
Format : BDAV
Format/Info : Blu-ray Video
File size : 2.84 GiB
Duration : 1h 35mn
Overall bit rate : 4 279 Kbps
Maximum Overall bit rate : 35.5 Mbps

Video
ID : 4113 (0x1011)
Menu ID : 1 (0x1)
Format : AVC
Format/Info : Advanced Video Codec
Format profile : High@L4.1
Format settings, CABAC : Yes
Format settings, ReFrames : 3 frames
Codec ID : 27
Duration : 1h 35mn
Bit rate mode : Variable
Bit rate : 2 879 Kbps
Nominal bit rate : 2 711 Kbps
Maximum bit rate : 40.0 Mbps
Width : 720 pixels
Height : 400 pixels
Display aspect ratio : 16:9
Frame rate : 23.976 fps
Color space : YUV
Chroma subsampling : 4:2:0
Bit depth : 8 bits
Scan type : Progressive
Bits/(Pixel*Frame) : 0.417
Stream size : 1.91 GiB (67%)
Writing library : x264 core 114 r1924 08d04a4

Encoding settings : cabac=1 / ref=4 / deblock=1:0:0 / analyse=0x3:0x133 / me=umh / subme=9 / psy=1 / psy_rd=1.00:0.25 / mixed_ref=1 / me_range=48 / chroma_me=1 / trellis=2 / 8x8dct=1 / cqm=0 / deadzone=21,11 / fast_pskip=0 / chroma_qp_offset=-4 / threads=9 / sliced_threads=0 / nr=0 / decimate=0 / interlaced=0 / constrained_intra=0 / bframes=3 / b_pyramid=1 / b_adapt=2 / b_bias=0 / direct=3 / weightb=1 / open_gop=0 / weightp=2 / keyint=250 / keyint_min=23 / scenecut=40 / intra_refresh=0 / rc_lookahead=40 / rc=2pass / mbtree=1 / bitrate=2711 / ratetol=1.0 / qcomp=0.60 / qpmin=0 / qpmax=69 / qpstep=4 / cplxblur=20.0 / qblur=0.5 / vbv_maxrate=50000 / vbv_bufsize=50000 / nal_hrd=none / ip_ratio=1.40 / aq=2:1.1

Language : English
Color primaries : BT.709-5, BT.1361, IEC 61966-2-4, SMPTE RP177
Transfer characteristics : BT.709-5, BT.1361
Matrix coefficients : BT.709-5, BT.1361, IEC 61966-2-4 709, SMPTE RP177

Audio #1
ID : 4352 (0x1100)
Menu ID : 1 (0x1)
Format : AC-3
Format/Info : Audio Coding 3
Mode extension : CM (complete main)
Codec ID : 129
Duration : 1h 35mn
Bit rate mode : Constant
Bit rate : 448 Kbps
Channel(s) : 6 channels
Channel positions : Front: L C R, Side: L R, LFE
Sampling rate : 48.0 KHz
Bit depth : 16 bits
Compression mode : Lossy
Stream size : 305 MiB (10%)
Language : English

Audio #2
ID : 4353 (0x1101)
Menu ID : 1 (0x1)
Format : AC-3
Format/Info : Audio Coding 3
Mode extension : CM (complete main)
Codec ID : 129
Duration : 1h 35mn
Bit rate mode : Constant
Bit rate : 384 Kbps
Channel(s) : 6 channels
Channel positions : Front: L C R, Side: L R, LFE
Sampling rate : 48.0 KHz
Bit depth : 16 bits
Compression mode : Lossy
Stream size : 261 MiB (9%)
Language : French

Audio #3
ID : 4354 (0x1102)
Menu ID : 1 (0x1)
Format : AC-3
Format/Info : Audio Coding 3
Mode extension : CM (complete main)
Codec ID : 129
Duration : 1h 35mn
Bit rate mode : Constant
Bit rate : 192 Kbps
Channel(s) : 2 channels
Channel positions : Front: L R
Sampling rate : 48.0 KHz
Bit depth : 16 bits
Compression mode : Lossy
Stream size : 131 MiB (4%)
Language : English

Audio #4
ID : 4355 (0x1103)
Menu ID : 1 (0x1)
Format : AC-3
Format/Info : Audio Coding 3
Mode extension : CM (complete main)
Codec ID : 129
Duration : 1h 35mn
Bit rate mode : Constant
Bit rate : 192 Kbps
Channel(s) : 2 channels
Channel positions : Front: L R
Sampling rate : 48.0 KHz
Bit depth : 16 bits
Compression mode : Lossy
Stream size : 131 MiB (4%)
Language : French

Actors: Steve Austin, Daniel Magder, Benjamin Ratner, Samuel Patrick Chu
Directors: Anne Wheeler
Language: English, French
Rated: PG (Parental Guidance Suggested)
Studio: Phase 4 Films
DVD Release Date: April 26, 2011
Run Time: 95 minutes

Sample Included: Yes
Encoder: Freebee269

Link: http://www.imdb.com/title/tt1691453/

Plot: Dan Barnes (Steve Austin) is a former pro boxer who retired after growing weary of his violent existence. Now a school janitor, Dan tries to help a new student, Matthew Miller (Daniel Magder), who is being targeted by bullies. While Matthew learns how to box and stand up to his tormentors, one of whom is the school boxing champ (Jaren Brandt Bartlett), Dan's new found role as a teacher helps him come to terms with his tumultuous past. 

Respect Goes To:

Groups: LEGi0N - IMAGiNE - iNK - Rx - ViSiON - SANTi - NPW

Friends: Kan1ve - Mopargreg - 420Demons - Kempas - Tinners - Santi - xXThORNXx - Bigdaddykane - Faustus34 - Jamie111 - DJDANKVT - mbdapimp - COPYxRiGHT